<?xml version="1.0" encoding="UTF-8"?>
<svg version="1.1" xmlns="http://www.w3.org/2000/svg" width="200" height="200">
<path d="M0 0 C66 0 132 0 200 0 C200 66 200 132 200 200 C134 200 68 200 0 200 C0 134 0 68 0 0 Z " fill="#FDFEFE" transform="translate(0,0)"/>
<path d="M0 0 C4.94858571 2.00968264 8.45928474 6.6656084 12.04638672 10.48144531 C13.76144984 12.26759243 15.47886502 14.05148434 17.19873047 15.83300781 C18.03065918 16.69764648 18.86258789 17.56228516 19.71972656 18.453125 C22.41557979 21.1649561 25.24278769 23.6516383 28.15014648 26.13134766 C32.5754073 30.02875423 36.62368512 34.3350834 40.75341797 38.54003906 C44.00240049 41.82465942 47.25440873 45.03559613 50.76904297 48.03613281 C56.49766453 52.97056232 61.83187074 58.31926678 67.19311523 63.64550781 C68.436753 64.8775136 69.68487288 66.10501011 70.93725586 67.328125 C72.76341248 69.11175761 74.57608578 70.90814455 76.38623047 72.70800781 C76.94656479 73.25083405 77.50689911 73.79366028 78.08421326 74.35293579 C81.07075836 77.35645771 82.99461899 79.52167348 83.10888672 83.85644531 C80.91485687 88.45346024 80.91485687 88.45346024 78.10888672 89.85644531 C75.70049994 89.94284401 73.32154791 89.97212295 70.91357422 89.95410156 C70.20613068 89.95268661 69.49868713 89.95127167 68.76980591 89.94981384 C66.50779003 89.94421132 64.24587273 89.93165849 61.98388672 89.91894531 C60.45133606 89.91393063 58.91878386 89.90936767 57.38623047 89.90527344 C53.62707784 89.89424108 49.867999 89.87697483 46.10888672 89.85644531 C46.11110733 90.58085312 46.11332794 91.30526093 46.11561584 92.05162048 C46.13561899 98.86487985 46.15086097 105.67813484 46.16069889 112.49141598 C46.16592661 115.99453416 46.17302222 119.49762816 46.18432617 123.00073242 C46.19722877 127.02425372 46.20211584 131.04774945 46.20654297 135.07128906 C46.21170425 136.33480698 46.21686554 137.59832489 46.22218323 138.90013123 C46.22225876 140.06125931 46.22233429 141.22238739 46.22241211 142.41870117 C46.22463272 143.44684433 46.22685333 144.47498749 46.22914124 145.5342865 C46.10888672 147.85644531 46.10888672 147.85644531 45.10888672 148.85644531 C41.39886859 149.2921857 37.81311511 149.35316067 34.10888672 148.85644531 C31.04638672 146.35644531 31.04638672 146.35644531 29.10888672 143.85644531 C28.44888672 143.85644531 27.78888672 143.85644531 27.10888672 143.85644531 C26.77888672 144.84644531 26.44888672 145.83644531 26.10888672 146.85644531 C27.09888672 146.85644531 28.08888672 146.85644531 29.10888672 146.85644531 C31.29638672 149.85644531 31.29638672 149.85644531 33.10888672 152.85644531 C31.78888672 154.17644531 30.46888672 155.49644531 29.10888672 156.85644531 C26.59771207 155.78022761 25.16903439 154.92769074 23.38476562 152.81420898 C20.33345389 150.18940006 18.43183492 150.33144556 14.44482422 150.28222656 C12.51509766 150.2406543 12.51509766 150.2406543 10.54638672 150.19824219 C9.19222665 150.18760142 7.83805935 150.17784583 6.48388672 150.16894531 C3.82484771 150.13069713 1.16619952 150.0816133 -1.49267578 150.03222656 C-2.67168457 150.02102783 -3.85069336 150.0098291 -5.06542969 149.99829102 C-7.89111328 149.85644531 -7.89111328 149.85644531 -9.89111328 148.85644531 C-9.89111328 149.51644531 -9.89111328 150.17644531 -9.89111328 150.85644531 C-9.23111328 151.18644531 -8.57111328 151.51644531 -7.89111328 151.85644531 C-7.89111328 152.51644531 -7.89111328 153.17644531 -7.89111328 153.85644531 C-17.99417735 162.85644531 -17.99417735 162.85644531 -23.89111328 162.85644531 C-26.40673828 160.84472656 -26.40673828 160.84472656 -29.14111328 158.16894531 C-30.05376953 157.29882812 -30.96642578 156.42871094 -31.90673828 155.53222656 C-33.89111328 152.85644531 -33.89111328 152.85644531 -33.68798828 150.02441406 C-33.42501953 149.30898437 -33.16205078 148.59355469 -32.89111328 147.85644531 C-33.88111328 148.18644531 -34.87111328 148.51644531 -35.89111328 148.85644531 C-38.09781742 148.95093894 -40.30739233 148.9863427 -42.51611328 148.98144531 C-43.68400391 148.98402344 -44.85189453 148.98660156 -46.05517578 148.98925781 C-48.89111328 148.85644531 -48.89111328 148.85644531 -49.89111328 147.85644531 C-49.98487381 146.04589506 -50.00855438 144.2316733 -50.00463867 142.41870117 C-50.00456314 141.25757309 -50.00448761 140.09644501 -50.00440979 138.90013123 C-49.9992485 137.63661331 -49.99408722 136.3730954 -49.98876953 135.07128906 C-49.98735458 133.7853334 -49.98593964 132.49937775 -49.98448181 131.17445374 C-49.98065746 127.75001089 -49.9708279 124.32561022 -49.95977783 120.90118408 C-49.94956193 117.40906342 -49.94498381 113.91693597 -49.93994141 110.42480469 C-49.92920555 103.56866753 -49.91213012 96.71255844 -49.89111328 89.85644531 C-50.83954102 89.87739258 -51.78796875 89.89833984 -52.76513672 89.91992188 C-56.29127753 89.98818091 -59.81671427 90.0382846 -63.34326172 90.07617188 C-64.86811414 90.0962613 -66.39288976 90.12353847 -67.91748047 90.15820312 C-70.11200926 90.20684327 -72.30551797 90.22943927 -74.50048828 90.24707031 C-75.82016602 90.26801758 -77.13984375 90.28896484 -78.49951172 90.31054688 C-81.89111328 89.85644531 -81.89111328 89.85644531 -84.35302734 88.26953125 C-86.49161225 84.91432915 -86.29164882 82.78508302 -85.89111328 78.85644531 C-84.04675293 76.16357422 -84.04675293 76.16357422 -81.42822266 73.58300781 C-80.95339447 73.10555115 -80.47856628 72.62809448 -79.98934937 72.13616943 C-78.42069836 70.56729743 -76.82862111 69.02477161 -75.23486328 67.48144531 C-74.1315596 66.38867546 -73.02973413 65.29441133 -71.92932129 64.19873047 C-69.02802825 61.31846499 -66.10592508 58.46022497 -63.17932129 55.60571289 C-60.81138704 53.28934332 -58.45817192 50.95834351 -56.10573578 48.62625122 C-37.15315663 29.83864639 -37.15315663 29.83864639 -29.59088135 23.34124756 C-27.14576482 21.20535939 -24.8653886 18.92526229 -22.58642578 16.61425781 C-21.67376953 15.69386719 -20.76111328 14.77347656 -19.82080078 13.82519531 C-18.40536412 12.39004505 -16.98993137 10.95489089 -15.57470703 9.51953125 C-14.18478737 8.11162217 -12.79190351 6.70664133 -11.39892578 5.30175781 C-10.17133545 4.05676514 -10.17133545 4.05676514 -8.91894531 2.78662109 C-6.00109415 0.00928769 -4.04888401 -0.65997333 0 0 Z " fill="#177CEF" transform="translate(101.89111328125,2.1435546875)"/>
<path d="M0 0 C1.69140625 0.08984375 1.69140625 0.08984375 4 1 C5.17732556 2.56353817 6.35159423 4.12958404 7.50219727 5.71289062 C11.13181622 10.39021555 14.42233227 13.4969042 20.37988281 14.65966797 C34.89775604 16.19358495 34.89775604 16.19358495 48.39233398 12.453125 C48.92286377 11.97359375 49.45339355 11.4940625 50 11 C50 11.66 50 12.32 50 13 C50.99 13 51.98 13 53 13 C55.1875 16 55.1875 16 57 19 C55.68 20.32 54.36 21.64 53 23 C50.48882535 21.92378229 49.06014767 21.07124543 47.27587891 18.95776367 C44.22456718 16.33295475 42.3229482 16.47500025 38.3359375 16.42578125 C37.04945312 16.39806641 35.76296875 16.37035156 34.4375 16.34179688 C33.08333993 16.33115611 31.72917263 16.32140051 30.375 16.3125 C27.71596099 16.27425182 25.0573128 16.22516799 22.3984375 16.17578125 C21.21942871 16.16458252 20.04041992 16.15338379 18.82568359 16.1418457 C16 16 16 16 14 15 C14 15.66 14 16.32 14 17 C14.66 17.33 15.32 17.66 16 18 C16 18.66 16 19.32 16 20 C5.89693593 29 5.89693593 29 0 29 C-2.515625 26.98828125 -2.515625 26.98828125 -5.25 24.3125 C-6.16265625 23.44238281 -7.0753125 22.57226562 -8.015625 21.67578125 C-10 19 -10 19 -9.796875 16.16796875 C-9.53390625 15.45253906 -9.2709375 14.73710937 -9 14 C-10.65 14.33 -12.3 14.66 -14 15 C-10.49925018 10.82556637 -7.02049157 6.6854506 -3 3 C-2.34 3 -1.68 3 -1 3 C-0.67 2.01 -0.34 1.02 0 0 Z " fill="#E2F4FD" transform="translate(78,136)"/>
<path d="M0 0 C2.38760199 0.88519938 3.54882038 1.89302425 5.31591797 3.71313477 C5.88955078 4.29643555 6.46318359 4.87973633 7.05419922 5.48071289 C7.64072266 6.09237305 8.22724609 6.7040332 8.83154297 7.33422852 C9.43353516 7.94975586 10.03552734 8.5652832 10.65576172 9.19946289 C12.13788678 10.71687664 13.61063967 12.24343448 15.08154297 13.77172852 C13.77267321 16.69873685 12.41928209 18.64357166 10.04248047 20.78735352 C9.46240234 21.31586914 8.88232422 21.84438477 8.28466797 22.38891602 C7.68138672 22.92774414 7.07810547 23.46657227 6.45654297 24.02172852 C5.84552734 24.57602539 5.23451172 25.13032227 4.60498047 25.70141602 C3.10197732 27.06351262 1.59239617 28.41834452 0.08154297 29.77172852 C-5.57975134 25.07405877 -10.77074607 20.0244948 -15.91845703 14.77172852 C-12.64491928 10.84348322 -9.29640318 6.99770869 -5.79345703 3.27172852 C-5.15150391 2.58079102 -4.50955078 1.88985352 -3.84814453 1.17797852 C-1.91845703 -0.22827148 -1.91845703 -0.22827148 0 0 Z " fill="#0A6CDD" transform="translate(98.91845703125,168.228271484375)"/>
<path d="M0 0 C2.814387 1.40180195 4.61923772 3.31257266 6.7890625 5.578125 C7.58828125 6.40441406 8.3875 7.23070312 9.2109375 8.08203125 C9.81421875 8.72011719 10.4175 9.35820312 11.0390625 10.015625 C8.35532181 15.79976019 3.98698283 19.05728874 -0.9609375 23.015625 C-4.5909375 19.385625 -8.2209375 15.755625 -11.9609375 12.015625 C-10.19249725 8.4787445 -8.77843296 6.48198353 -6.0859375 3.703125 C-5.06886719 2.62611328 -5.06886719 2.62611328 -4.03125 1.52734375 C-1.9609375 0.015625 -1.9609375 0.015625 0 0 Z " fill="#1270DC" transform="translate(79.9609375,142.984375)"/>
<path d="M0 0 C0.99 0 1.98 0 3 0 C3.33 2.31 3.66 4.62 4 7 C4.66 7 5.32 7 6 7 C6.33 9.31 6.66 11.62 7 14 C8.65 14.66 10.3 15.32 12 16 C12 16.99 12 17.98 12 19 C11.34 18.34 10.68 17.68 10 17 C9.01 17 8.02 17 7 17 C6.34 17.66 5.68 18.32 5 19 C2.375 18.625 2.375 18.625 0 18 C-0.33 18.66 -0.66 19.32 -1 20 C-5.5 23 -5.5 23 -8 23 C-8 23.66 -8 24.32 -8 25 C-9.65 25 -11.3 25 -13 25 C-13 26.32 -13 27.64 -13 29 C-14.32 29 -15.64 29 -17 29 C-16.67 28.29875 -16.34 27.5975 -16 26.875 C-14.82547342 24.0055609 -14.82547342 24.0055609 -15 20.8125 C-15 18 -15 18 -13 16 C-11.02 16.66 -9.04 17.32 -7 18 C-7 16.68 -7 15.36 -7 14 C-6.34 14 -5.68 14 -5 14 C-5 13.01 -5 12.02 -5 11 C-6.98 11.33 -8.96 11.66 -11 12 C-11 11.34 -11 10.68 -11 10 C-10.030625 9.608125 -9.06125 9.21625 -8.0625 8.8125 C-4.77823609 7.32405113 -4.77823609 7.32405113 -4.125 4.3125 C-4.08375 3.549375 -4.0425 2.78625 -4 2 C-3.01 1.67 -2.02 1.34 -1 1 C-0.67 0.67 -0.34 0.34 0 0 Z " fill="#1573DC" transform="translate(71,120)"/>
<path d="M0 0 C4.55773278 1.76382848 7.71243452 5.86168002 10.98779297 9.35595703 C11.76703125 10.16226562 12.54626953 10.96857422 13.34912109 11.79931641 C15.26380138 13.78447572 17.16305644 15.78224842 19.05029297 17.79345703 C18.41091797 17.91720703 17.77154297 18.04095703 17.11279297 18.16845703 C16.43216797 18.37470703 15.75154297 18.58095703 15.05029297 18.79345703 C14.72029297 19.45345703 14.39029297 20.11345703 14.05029297 20.79345703 C13.06029297 20.79345703 12.07029297 20.79345703 11.05029297 20.79345703 C11.11539714 18.77522786 11.1805013 16.7569987 11.24560547 14.73876953 C11.23360985 12.55482058 11.23360985 12.55482058 9.05029297 10.79345703 C6.47967986 10.1457791 6.47967986 10.1457791 4.05029297 9.79345703 C4.05029297 8.14345703 4.05029297 6.49345703 4.05029297 4.79345703 C-1.81388418 4.2930142 -1.81388418 4.2930142 -6.94970703 6.79345703 C-7.60970703 7.45345703 -8.26970703 8.11345703 -8.94970703 8.79345703 C-7.62970703 9.45345703 -6.30970703 10.11345703 -4.94970703 10.79345703 C-7.24010053 12.06589787 -8.95736651 12.79455124 -11.57470703 13.16845703 C-14.07220257 13.54989575 -14.07220257 13.54989575 -15.19970703 15.60595703 C-15.90290253 17.6569439 -16.49546959 19.67368232 -16.94970703 21.79345703 C-17.98095703 21.50470703 -19.01220703 21.21595703 -20.07470703 20.91845703 C-23.7886108 20.40929745 -23.7886108 20.40929745 -25.75048828 22.06298828 C-27.2272365 23.56793217 -28.59665477 25.17639457 -29.94970703 26.79345703 C-30.60970703 26.46345703 -31.26970703 26.13345703 -31.94970703 25.79345703 C-28.42913294 22.24819714 -24.90531217 18.70620893 -21.37841797 15.16723633 C-20.17862172 13.96240574 -18.97972377 12.75667991 -17.78173828 11.55004883 C-16.0614278 9.81763351 -14.33793159 8.08844433 -12.61376953 6.35986328 C-12.07724762 5.81818008 -11.54072571 5.27649689 -10.98794556 4.71839905 C-5.39841411 -0.87197614 -5.39841411 -0.87197614 0 0 Z " fill="#2585EF" transform="translate(101.94970703125,2.20654296875)"/>
<path d="M0 0 C2.06372381 4.12744761 2.22857272 5.76013442 2.16015625 10.234375 C2.14919922 11.44867188 2.13824219 12.66296875 2.12695312 13.9140625 C2.09504883 15.81285156 2.09504883 15.81285156 2.0625 17.75 C1.81699351 27.25025423 1.81699351 27.25025423 2.55859375 36.703125 C3 40 3 40 2 43 C1.77439324 45.39254576 1.59151405 47.78928123 1.4375 50.1875 C1.35371094 51.45980469 1.26992188 52.73210937 1.18359375 54.04296875 C1.09271484 55.50669922 1.09271484 55.50669922 1 57 C2.32 57 3.64 57 5 57 C5 55.68 5 54.36 5 53 C6.65 53 8.3 53 10 53 C10 52.34 10 51.68 10 51 C12.5614657 48.70351351 13.47967572 48 17 48 C17.33 47.01 17.66 46.02 18 45 C19.65 45.33 21.3 45.66 23 46 C21.5826217 47.69884349 20.15105487 49.38012079 18.69140625 51.04296875 C17.63800012 52.26180587 16.61758304 53.51099773 15.65234375 54.80078125 C14.3125 56.4375 14.3125 56.4375 11 59 C7.37 59 3.74 59 0 59 C0 39.53 0 20.06 0 0 Z " fill="#1C73D5" transform="translate(53,92)"/>
<path d="M0 0 C1 3 1 3 0.0625 5.1875 C-0.4634375 6.0846875 -0.4634375 6.0846875 -1 7 C-0.05125 7.226875 0.8975 7.45375 1.875 7.6875 C5 9 5 9 6.375 11.625 C6.58125 12.40875 6.7875 13.1925 7 14 C10.62528568 14.20140476 12.86501708 13.85776765 16 12 C15.67 12.66 15.34 13.32 15 14 C21.27 14.33 27.54 14.66 34 15 C33.505 13.515 33.505 13.515 33 12 C35.31 11.34 37.62 10.68 40 10 C39.505 7.525 39.505 7.525 39 5 C39.495 5.99 39.495 5.99 40 7 C40.99 7 41.98 7 43 7 C43 6.01 43 5.02 43 4 C42.34 3.67 41.68 3.34 41 3 C42.65 3 44.3 3 46 3 C46 4.65 46 6.3 46 8 C44.68 8.33 43.36 8.66 42 9 C43.32 9.99 44.64 10.98 46 12 C45.01 12 44.02 12 43 12 C40.74900304 12.91446752 39.30035788 13.62728534 37.765625 15.53173828 C33.750482 18.87065836 26.98051542 17.80899648 22 17.875 C21.33860016 17.88523193 20.67720032 17.89546387 19.99575806 17.90600586 C6.38747402 18.00085885 6.38747402 18.00085885 1.03320312 13.05908203 C-0.88837715 10.83280997 -2.53223447 8.54688328 -4 6 C-2.25 1.125 -2.25 1.125 0 0 Z " fill="#2673CC" transform="translate(88,134)"/>
<path d="M0 0 C2.31 0.66 4.62 1.32 7 2 C7 2.66 7 3.32 7 4 C7.66 4 8.32 4 9 4 C11 9.625 11 9.625 11 13 C6.05 14.485 6.05 14.485 1 16 C-2.61139896 12.30051813 -2.61139896 12.30051813 -4 10 C-3.8125 6.625 -3.8125 6.625 -3 4 C-2.34 4 -1.68 4 -1 4 C-0.67 2.68 -0.34 1.36 0 0 Z " fill="#307DD4" transform="translate(104,130)"/>
<path d="M0 0 C0.99 0.33 1.98 0.66 3 1 C2.4225 1.49628906 1.845 1.99257812 1.25 2.50390625 C-3.60846135 6.82831028 -3.60846135 6.82831028 -5.6875 12.8125 C-4.86772513 16.6394018 -4.86772513 16.6394018 -2 19 C0.50518087 19.33042938 2.78315711 19.48852271 5.29296875 19.51171875 C6.58485107 19.54483154 7.8767334 19.57794434 9.20776367 19.61206055 C10.85107666 19.63695557 12.49438965 19.66185059 14.1875 19.6875 C22.0146875 19.8421875 22.0146875 19.8421875 30 20 C30 39.14 30 58.28 30 78 C29.67 78 29.34 78 29 78 C29 59.19 29 40.38 29 21 C18.27455266 21.11863959 18.27455266 21.11863959 7.54956055 21.27026367 C6.20362053 21.27902661 4.85767256 21.28667101 3.51171875 21.29296875 C2.46594666 21.3159906 2.46594666 21.3159906 1.39904785 21.33947754 C-3.51400638 21.34213756 -3.51400638 21.34213756 -5.94897461 19.62792969 C-7.41011575 17.36477309 -7.330386 15.73533452 -7.25 13.0625 C-7.23453125 12.20785156 -7.2190625 11.35320312 -7.203125 10.47265625 C-7.01245804 8.15165272 -6.83702391 6.17528888 -6 4 C-5.01 3.67 -4.02 3.34 -3 3 C-1.33289654 1.50014391 -1.33289654 1.50014391 0 0 Z " fill="#ECFEFF" transform="translate(22,72)"/>
<path d="M0 0 C0.33 0 0.66 0 1 0 C1.02312851 7.54498233 1.04091769 15.08996101 1.05181217 22.63497066 C1.05703989 26.13808885 1.0641355 29.64118285 1.07543945 33.14428711 C1.08834206 37.16780841 1.09322912 41.19130414 1.09765625 45.21484375 C1.10281754 46.47836166 1.10797882 47.74187958 1.11329651 49.04368591 C1.11337204 50.204814 1.11344757 51.36594208 1.11352539 52.56225586 C1.115746 53.59039902 1.11796661 54.61854218 1.12025452 55.67784119 C1 58 1 58 0 59 C-2.3984375 59.23828125 -2.3984375 59.23828125 -5.375 59.3125 C-6.84066406 59.36857422 -6.84066406 59.36857422 -8.3359375 59.42578125 C-11 59 -11 59 -12.8515625 56.98046875 C-13.23054687 56.32691406 -13.60953125 55.67335937 -14 55 C-12.02 55.66 -10.04 56.32 -8 57 C-8 55.02 -8 53.04 -8 51 C-5.525 50.505 -5.525 50.505 -3 50 C-2.67 52.31 -2.34 54.62 -2 57 C-1.34 57 -0.68 57 0 57 C0 38.19 0 19.38 0 0 Z " fill="#4086D6" transform="translate(147,92)"/>
<path d="M0 0 C0.99 0 1.98 0 3 0 C3.40060526 3.50529602 3.15413141 4.7739406 1.125 7.75 C-1.55891658 10.59179402 -2.24170331 10.97279679 -6.16455078 11.11352539 C-7.50814841 11.11327537 -8.85175279 11.10775402 -10.1953125 11.09765625 C-11.48969238 11.09515869 -12.78407227 11.09266113 -14.11767578 11.09008789 C-15.77009277 11.08098389 -17.42250977 11.07187988 -19.125 11.0625 C-24.36375 11.041875 -29.6025 11.02125 -35 11 C-35 29.81 -35 48.62 -35 68 C-35.33 68 -35.66 68 -36 68 C-36 48.86 -36 29.72 -36 10 C-20.1875 9.6875 -20.1875 9.6875 -15.20776367 9.61206055 C-13.91588135 9.57894775 -12.62399902 9.54583496 -11.29296875 9.51171875 C-10.27958435 9.50235291 -10.27958435 9.50235291 -9.24572754 9.49279785 C-6.41100681 9.40574613 -4.44974779 9.31335969 -2.0871582 7.66723633 C-0.50409829 5.23949859 -0.31585718 2.84271459 0 0 Z " fill="#E7FDFF" transform="translate(184,82)"/>
<path d="M0 0 C0.33 0.66 0.66 1.32 1 2 C1.99 2 2.98 2 4 2 C6.1875 5 6.1875 5 8 8 C6.68 9.32 5.36 10.64 4 12 C1.49014039 10.92434588 0.0448631 10.05197949 -1.76074219 7.95996094 C-4.64985953 5.43119578 -6.27840358 5.46512934 -10.078125 5.390625 C-11.81835938 5.34228516 -11.81835938 5.34228516 -13.59375 5.29296875 C-15.40359375 5.27169922 -15.40359375 5.27169922 -17.25 5.25 C-18.47203125 5.22035156 -19.6940625 5.19070312 -20.953125 5.16015625 C-23.96881644 5.08947598 -26.9837355 5.03676825 -30 5 C-30 4.67 -30 4.34 -30 4 C-29.19780029 3.98541748 -28.39560059 3.97083496 -27.5690918 3.95581055 C-23.94140301 3.88143281 -20.31464496 3.78473757 -16.6875 3.6875 C-15.42486328 3.66494141 -14.16222656 3.64238281 -12.86132812 3.61914062 C-11.65283203 3.58369141 -10.44433594 3.54824219 -9.19921875 3.51171875 C-8.08377686 3.48553467 -6.96833496 3.45935059 -5.8190918 3.43237305 C-2.76261175 2.96359101 -1.83540117 2.42182734 0 0 Z " fill="#E0FCFF" transform="translate(127,147)"/>
<path d="M0 0 C3.7952131 1.49097658 5.61042731 3.75700849 8 7 C6.02 8.98 4.04 10.96 2 13 C-1.7952131 11.50902342 -3.61042731 9.24299151 -6 6 C-4.02 4.02 -2.04 2.04 0 0 Z " fill="#236DC7" transform="translate(138,160)"/>
<path d="M0 0 C1.65 0.33 3.3 0.66 5 1 C3.56092864 2.71600606 2.11055305 4.41964463 0.640625 6.109375 C-0.74008757 7.70048187 -2.09224918 9.31630029 -3.4375 10.9375 C-6.76149641 13.61291174 -8.84377202 13.40747333 -13 13 C-13 11.35 -13 9.7 -13 8 C-11.35 8 -9.7 8 -8 8 C-8 7.34 -8 6.68 -8 6 C-5.4385343 3.70351351 -4.52032428 3 -1 3 C-0.67 2.01 -0.34 1.02 0 0 Z " fill="#1470DD" transform="translate(71,137)"/>
<path d="M0 0 C0 4.0333534 -1.60879918 5.83517538 -4 9 C-4.66 9 -5.32 9 -6 9 C-6.66 10.32 -7.32 11.64 -8 13 C-8.99 13 -9.98 13 -11 13 C-10.73323796 14.98491642 -10.73323796 14.98491642 -10 17 C-9.01 17.33 -8.02 17.66 -7 18 C-7 18.99 -7 19.98 -7 21 C3.23 21.33 13.46 21.66 24 22 C24 22.33 24 22.66 24 23 C19.51601216 23.09903473 15.03260708 23.17154483 10.54785156 23.21972656 C9.02299915 23.23981599 7.49822352 23.26709316 5.97363281 23.30175781 C3.77910402 23.35039796 1.58559531 23.37299396 -0.609375 23.390625 C-1.92905273 23.41157227 -3.24873047 23.43251953 -4.60839844 23.45410156 C-8 23 -8 23 -10.42285156 21.18481445 C-12 19 -12 19 -12.625 15.65234375 C-11.78267419 10.73000231 -9.61734849 8.80915174 -6 5.5625 C-5.14148438 4.75135742 -5.14148438 4.75135742 -4.265625 3.92382812 C-2.85912094 2.59937013 -1.43155201 1.29734401 0 0 Z " fill="#327CD7" transform="translate(28,69)"/>
<path d="M0 0 C2.84050218 1.24767365 4.14723347 3.36955621 5.92480469 5.84545898 C3.44980469 5.35045898 3.44980469 5.35045898 0.92480469 4.84545898 C0.92480469 4.18545898 0.92480469 3.52545898 0.92480469 2.84545898 C0.26480469 2.84545898 -0.39519531 2.84545898 -1.07519531 2.84545898 C-0.74519531 3.83545898 -0.41519531 4.82545898 -0.07519531 5.84545898 C-0.71457031 5.96920898 -1.35394531 6.09295898 -2.01269531 6.22045898 C-2.69332031 6.42670898 -3.37394531 6.63295898 -4.07519531 6.84545898 C-4.40519531 7.50545898 -4.73519531 8.16545898 -5.07519531 8.84545898 C-6.06519531 8.84545898 -7.05519531 8.84545898 -8.07519531 8.84545898 C-8.40519531 10.49545898 -8.73519531 12.14545898 -9.07519531 13.84545898 C-10.06519531 13.84545898 -11.05519531 13.84545898 -12.07519531 13.84545898 C-12.40519531 15.16545898 -12.73519531 16.48545898 -13.07519531 17.84545898 C-14.06519531 16.52545898 -15.05519531 15.20545898 -16.07519531 13.84545898 C-13.84567782 11.4711387 -11.58860331 9.12495754 -9.32519531 6.78295898 C-8.69097656 6.1068457 -8.05675781 5.43073242 -7.40332031 4.73413086 C-6.78457031 4.09926758 -6.16582031 3.4644043 -5.52832031 2.81030273 C-4.96274414 2.21854248 -4.39716797 1.62678223 -3.81445312 1.01708984 C-2.07519531 -0.15454102 -2.07519531 -0.15454102 0 0 Z " fill="#2F7BD6" transform="translate(99.0751953125,168.154541015625)"/>
<path d="M0 0 C5.59898403 1.03532271 9.09002442 5.77872142 12.8125 9.75 C13.59173828 10.55630859 14.37097656 11.36261719 15.17382812 12.19335938 C17.08850841 14.17851869 18.98776347 16.17629139 20.875 18.1875 C20.235625 18.31125 19.59625 18.435 18.9375 18.5625 C18.256875 18.76875 17.57625 18.975 16.875 19.1875 C16.545 19.8475 16.215 20.5075 15.875 21.1875 C14.885 21.1875 13.895 21.1875 12.875 21.1875 C12.94010417 19.16927083 13.00520833 17.15104167 13.0703125 15.1328125 C13.05831689 12.94886355 13.05831689 12.94886355 10.875 11.1875 C8.30438689 10.53982207 8.30438689 10.53982207 5.875 10.1875 C5.875 8.5375 5.875 6.8875 5.875 5.1875 C5.215 5.1875 4.555 5.1875 3.875 5.1875 C3.545 4.5275 3.215 3.8675 2.875 3.1875 C-2.9224423 2.94321657 -2.9224423 2.94321657 -8.125 5.1875 C-4.15011533 0.24900692 -4.15011533 0.24900692 0 0 Z " fill="#3489E9" transform="translate(100.125,1.8125)"/>
<path d="M0 0 C0.33 1.32 0.66 2.64 1 4 C-0.32 4.33 -1.64 4.66 -3 5 C-3.33 6.98 -3.66 8.96 -4 11 C-6.02045442 10.39816251 -8.02111039 9.72693904 -10 9 C-10.33 8.34 -10.66 7.68 -11 7 C-11.99 6.34 -12.98 5.68 -14 5 C-12.35 4.67 -10.7 4.34 -9 4 C-9 2.68 -9 1.36 -9 0 C-5.52176885 -1.15941038 -3.54104422 -0.70820884 0 0 Z " fill="#0F72E3" transform="translate(143,138)"/>
<path d="M0 0 C1 3 1 3 0.0625 5.1875 C-0.4634375 6.0846875 -0.4634375 6.0846875 -1 7 C-0.05125 7.226875 0.8975 7.45375 1.875 7.6875 C5 9 5 9 6.375 11.625 C6.58125 12.40875 6.7875 13.1925 7 14 C10.62528568 14.20140476 12.86501708 13.85776765 16 12 C15.67 12.66 15.34 13.32 15 14 C20.94 14.33 26.88 14.66 33 15 C33 15.33 33 15.66 33 16 C7.58312757 17.73868313 7.58312757 17.73868313 1.98046875 13.7734375 C-0.40370333 11.29501558 -2.30843569 8.9882524 -4 6 C-2.25 1.125 -2.25 1.125 0 0 Z " fill="#1671D6" transform="translate(88,134)"/>
<path d="M0 0 C2.45849212 0.23791859 3.81202615 0.863881 5.8125 2.3125 C7 4 7 4 7 6 C5.61287108 8.77425784 3.7073419 9.61161954 1 11 C-0.65 9.35 -2.3 7.7 -4 6 C-2.84826645 3.53199953 -1.95216435 1.95216435 0 0 Z " fill="#E9F9FE" transform="translate(105,133)"/>
<path d="M0 0 C5.66129431 4.69766975 10.85228904 9.74723372 16 15 C12.84808349 15.89677959 11.15393112 15.8410483 8 15 C7.01 15.495 7.01 15.495 6 16 C5.34 15.34 4.68 14.68 4 14 C4.375 11 4.375 11 5 8 C5 7.34 5 6.68 5 6 C4.34 6 3.68 6 3 6 C3 5.34 3 4.68 3 4 C2.01 4 1.02 4 0 4 C0 2.68 0 1.36 0 0 Z " fill="#2682F1" transform="translate(125,24)"/>
<path d="M0 0 C5.06623768 4.23816537 9.80038069 8.67408963 14.4375 13.375 C15.07365234 14.01566406 15.70980469 14.65632813 16.36523438 15.31640625 C17.91250332 16.87530879 19.45736492 18.43651416 21 20 C20.34 20.33 19.68 20.66 19 21 C18.01 20.67 17.02 20.34 16 20 C15.67 19.01 15.34 18.02 15 17 C14.01 16.67 13.02 16.34 12 16 C10.8125 13.9375 10.8125 13.9375 10 12 C8.35 12 6.7 12 5 12 C5 10.68 5 9.36 5 8 C3.68799596 6.64567325 2.35368596 5.31266518 1 4 C0.37109375 1.875 0.37109375 1.875 0 0 Z " fill="#3283E0" transform="translate(150,48)"/>
<path d="M0 0 C2.31 1.98 4.62 3.96 7 6 C5.193388 9.61322401 4.33581029 10.83748791 1.375 13.25 C0.74335937 13.77078125 0.11171875 14.2915625 -0.5390625 14.828125 C-1.02117187 15.21484375 -1.50328125 15.6015625 -2 16 C-2.66 14.68 -3.32 13.36 -4 12 C-2.68 11.34 -1.36 10.68 0 10 C0 6.7 0 3.4 0 0 Z " fill="#2174D7" transform="translate(107,176)"/>
<path d="M0 0 C0.33 0.66 0.66 1.32 1 2 C2.65 1.67 4.3 1.34 6 1 C7.231394 4.69418201 6.64432764 7.2056261 6 11 C4.68 11.33 3.36 11.66 2 12 C1.67 10.68 1.34 9.36 1 8 C0.34 8 -0.32 8 -1 8 C-1.04241723 5.66705225 -1.04092937 3.33297433 -1 1 C-0.67 0.67 -0.34 0.34 0 0 Z " fill="#1473E3" transform="translate(89,121)"/>
<path d="M0 0 C2.62187494 1.04874998 3.79371361 1.64931313 5.25 4.125 C5.4975 4.74375 5.745 5.3625 6 6 C4.68 7.32 3.36 8.64 2 10 C-0.62187494 8.95125002 -1.79371361 8.35068687 -3.25 5.875 C-3.4975 5.25625 -3.745 4.6375 -4 4 C-2.68 2.68 -1.36 1.36 0 0 Z " fill="#367ACC" transform="translate(110,156)"/>
<path d="M0 0 C2.64 0.33 5.28 0.66 8 1 C8.04254356 2.99954746 8.04080783 5.00041636 8 7 C7 8 7 8 4 8.125 C1 8 1 8 0 7 C-0.04092937 4.66702567 -0.04241723 2.33294775 0 0 Z " fill="#2172D3" transform="translate(119,124)"/>
<path d="M0 0 C1 2 1 2 0.375 4.5625 C-0.07875 5.366875 -0.5325 6.17125 -1 7 C-2.65821773 7.37309899 -4.32577014 7.70700977 -6 8 C-7.1500831 9.96672915 -7.1500831 9.96672915 -8 12 C-8.99 12.33 -9.98 12.66 -11 13 C-11.33 13.99 -11.66 14.98 -12 16 C-13.32 15.67 -14.64 15.34 -16 15 C-13.89888324 12.87190742 -11.79429065 10.74746285 -9.6875 8.625 C-9.09259766 8.02171875 -8.49769531 7.4184375 -7.88476562 6.796875 C-7.30791016 6.21679688 -6.73105469 5.63671875 -6.13671875 5.0390625 C-5.60780029 4.50490723 -5.07888184 3.97075195 -4.53393555 3.42041016 C-3 2 -3 2 0 0 Z " fill="#428FE2" transform="translate(69,29)"/>
<path d="M0 0 C2.75 0.8125 2.75 0.8125 5 2 C5 6 5 6 3.5 7.75 C2.7575 8.36875 2.7575 8.36875 2 9 C-0.62187494 7.95125002 -1.79371361 7.35068687 -3.25 4.875 C-3.4975 4.25625 -3.745 3.6375 -4 3 C-2.3125 1.375 -2.3125 1.375 0 0 Z " fill="#2E73C6" transform="translate(66,170)"/>
<path d="M0 0 C3.74193548 1.67741935 3.74193548 1.67741935 5.25 3.5625 C7.83730089 5.68778288 9.90173585 5.29349239 13.1875 5.1875 C14.81751953 5.14689453 14.81751953 5.14689453 16.48046875 5.10546875 C17.31191406 5.07066406 18.14335937 5.03585938 19 5 C19 5.66 19 6.32 19 7 C15.37 7.33 11.74 7.66 8 8 C7.67 8.99 7.34 9.98 7 11 C4.50650682 9.75325341 3.53359929 8.30039894 2 6 C2 5.34 2 4.68 2 4 C1.01 4 0.02 4 -1 4 C-0.67 2.68 -0.34 1.36 0 0 Z " fill="#E7FBFE" transform="translate(129,145)"/>
<path d="M0 0 C2.47598865 1.19805902 2.96367818 2.42179364 3.9375 4.9375 C2.75 6.5 2.75 6.5 0.9375 7.9375 C-1.75 7.625 -1.75 7.625 -4.0625 6.9375 C-4.75 5.125 -4.75 5.125 -5.0625 2.9375 C-3.53691078 0.60896909 -2.82161106 -0.08550337 0 0 Z " fill="#E5F6FD" transform="translate(72.0625,125.0625)"/>
<path d="M0 0 C0.33 1.32 0.66 2.64 1 4 C0.01 4.33 -0.98 4.66 -2 5 C-2.33 5.99 -2.66 6.98 -3 8 C-3.99 9.485 -3.99 9.485 -5 11 C-6.32 11 -7.64 11 -9 11 C-9.33 12.32 -9.66 13.64 -10 15 C-11.65 15.33 -13.3 15.66 -15 16 C-10.30233025 10.33870569 -5.25276628 5.14771096 0 0 Z " fill="#3184E4" transform="translate(52,45)"/>
<path d="M0 0 C3.16115776 1.36983503 3.9927092 1.9890638 6 5 C4.68 6.32 3.36 7.64 2 9 C-1.16115776 7.63016497 -1.9927092 7.0109362 -4 4 C-2.68 2.68 -1.36 1.36 0 0 Z " fill="#2F7ACE" transform="translate(129,150)"/>
<path d="M0 0 C0.66 0 1.32 0 2 0 C2.33 2.31 2.66 4.62 3 7 C5.475 7.99 5.475 7.99 8 9 C8 9.99 8 10.98 8 12 C7.34 11.34 6.68 10.68 6 10 C5.01 10 4.02 10 3 10 C2.34 10.66 1.68 11.32 1 12 C0.67 10.68 0.34 9.36 0 8 C-1.65 8 -3.3 8 -5 8 C-5 7.34 -5 6.68 -5 6 C-4.175 5.525625 -3.35 5.05125 -2.5 4.5625 C-1.2625 3.7890625 -1.2625 3.7890625 0 3 C0 2.01 0 1.02 0 0 Z " fill="#2577DA" transform="translate(75,127)"/>
<path d="M0 0 C0.99 0.33 1.98 0.66 3 1 C3 1.66 3 2.32 3 3 C3.66 3 4.32 3 5 3 C5 4.65 5 6.3 5 8 C3.35 8.33 1.7 8.66 0 9 C-0.33 7.68 -0.66 6.36 -1 5 C-1.66 5 -2.32 5 -3 5 C-1.125 1.125 -1.125 1.125 0 0 Z " fill="#116FDC" transform="translate(138,162)"/>
<path d="M0 0 C3.87511727 0.54984772 5.59576506 2.27555331 8.25 5.0625 C8.95640625 5.79597656 9.6628125 6.52945313 10.390625 7.28515625 C10.92171875 7.85105469 11.4528125 8.41695312 12 9 C11.01 9.495 11.01 9.495 10 10 C9.01 9.67 8.02 9.34 7 9 C6.67 9.66 6.34 10.32 6 11 C5.01 9.68 4.02 8.36 3 7 C3.66 7 4.32 7 5 7 C4.67 6.01 4.34 5.02 4 4 C2.35 3.67 0.7 3.34 -1 3 C-0.67 2.01 -0.34 1.02 0 0 Z " fill="#D3EEFD" transform="translate(78,136)"/>
<path d="M0 0 C0.99 0.99 1.98 1.98 3 3 C1.64470356 5.71059288 1.43911061 5.84631129 -1.5 6.875 C-2.325 7.24625 -3.15 7.6175 -4 8 C-4.33 8.99 -4.66 9.98 -5 11 C-5.66 9.68 -6.32 8.36 -7 7 C-4.69 4.69 -2.38 2.38 0 0 Z " fill="#2070D7" transform="translate(75,146)"/>
<path d="M0 0 C0.99 0.33 1.98 0.66 3 1 C2.4225 1.47308594 1.845 1.94617188 1.25 2.43359375 C-3.25485119 6.27269117 -3.25485119 6.27269117 -5.53125 11.53515625 C-5.50328596 13.74081982 -5.36241987 15.82548076 -5 18 C-5.66 18 -6.32 18 -7 18 C-7.027193 16.41676312 -7.04648306 14.83338938 -7.0625 13.25 C-7.07410156 12.36828125 -7.08570313 11.4865625 -7.09765625 10.578125 C-7.00640071 8.16897863 -6.88409929 6.2430862 -6 4 C-5.01 3.67 -4.02 3.34 -3 3 C-1.33289654 1.50014391 -1.33289654 1.50014391 0 0 Z " fill="#D0EBFB" transform="translate(22,72)"/>
<path d="M0 0 C4.40184756 1.20050388 7.1339154 2.39085643 10 6 C10.625 8.1875 10.625 8.1875 11 10 C11.66 10.33 12.32 10.66 13 11 C10 11 10 11 7.51953125 8.84765625 C6.62621094 7.92855469 5.73289062 7.00945312 4.8125 6.0625 C3.91144531 5.14597656 3.01039062 4.22945312 2.08203125 3.28515625 C0 1 0 1 0 0 Z " fill="#1E6DC8" transform="translate(87,186)"/>
<path d="M0 0 C0.99 0 1.98 0 3 0 C3.33 2.31 3.66 4.62 4 7 C3.2575 6.7525 2.515 6.505 1.75 6.25 C0.8425 6.1675 -0.065 6.085 -1 6 C-3.33454661 7.83358335 -3.33454661 7.83358335 -5 10 C-5 7.69 -5 5.38 -5 3 C-4.360625 2.690625 -3.72125 2.38125 -3.0625 2.0625 C-1.06389179 1.1654837 -1.06389179 1.1654837 0 0 Z " fill="#1B75D9" transform="translate(71,120)"/>
<path d="M0 0 C0 3 0 3 -1 6 C-0.01 5.67 0.98 5.34 2 5 C1.67 5.99 1.34 6.98 1 8 C-2 9 -2 9 -5 9 C-5.99 9.66 -6.98 10.32 -8 11 C-7.91433603 8.087425 -7.42089045 6.43201976 -5.375 4.33203125 C-3.61608625 2.83908228 -1.83686981 1.39563738 0 0 Z " fill="#1E83F8" transform="translate(77,23)"/>
<path d="M0 0 C0.99 0.99 1.98 1.98 3 3 C1.6875 5 1.6875 5 0 7 C-0.99 7 -1.98 7 -3 7 C-3.33 7.66 -3.66 8.32 -4 9 C-4.99 8.34 -5.98 7.68 -7 7 C-4.69 4.69 -2.38 2.38 0 0 Z " fill="#267DE6" transform="translate(36,61)"/>
<path d="M0 0 C0 0.66 0 1.32 0 2 C-0.66 2 -1.32 2 -2 2 C-2 4.97 -2 7.94 -2 11 C-3.32 11 -4.64 11 -6 11 C-6.36601307 3.5577342 -6.36601307 3.5577342 -4.6875 1 C-3 0 -3 0 0 0 Z " fill="#1272E1" transform="translate(103,132)"/>
<path d="M0 0 C0.33 1.32 0.66 2.64 1 4 C-0.32 4.33 -1.64 4.66 -3 5 C-3.33 6.32 -3.66 7.64 -4 9 C-4.99 7.68 -5.98 6.36 -7 5 C-4.87219421 2.65941363 -2.88437779 1.29299694 0 0 Z " fill="#2170CB" transform="translate(90,177)"/>
<path d="M0 0 C1 3 1 3 0.0625 5.1875 C-0.4634375 6.0846875 -0.4634375 6.0846875 -1 7 C0.98 7.66 2.96 8.32 5 9 C4.34 9.66 3.68 10.32 3 11 C0 9.1875 0 9.1875 -3 7 C-3 4 -3 4 -2 1 C-1.34 0.67 -0.68 0.34 0 0 Z " fill="#1472DC" transform="translate(88,134)"/>
<path d="M0 0 C0.99 0.33 1.98 0.66 3 1 C3 1.99 3 2.98 3 4 C-1.95 5.485 -1.95 5.485 -7 7 C-7.33 5.68 -7.66 4.36 -8 3 C-7.01 3.33 -6.02 3.66 -5 4 C-4.175 3.34 -3.35 2.68 -2.5 2 C-1.675 1.34 -0.85 0.68 0 0 Z " fill="#1D75D7" transform="translate(112,139)"/>
<path d="M0 0 C2 0.8125 2 0.8125 5 2.8125 C4.67 3.4725 4.34 4.1325 4 4.8125 C1.36 4.8125 -1.28 4.8125 -4 4.8125 C-4.33 4.1525 -4.66 3.4925 -5 2.8125 C-2.55813953 -0.23982558 -2.55813953 -0.23982558 0 0 Z " fill="#1D82F7" transform="translate(141,42.1875)"/>
<path d="M0 0 C0.33 0.99 0.66 1.98 1 3 C-1.66339735 7.29717465 -4.81079725 10.48107516 -9.4375 12.5 C-10.283125 12.665 -11.12875 12.83 -12 13 C-9.20143882 9.19395679 -6.13069568 6.28808065 -2.48828125 3.33203125 C-0.87117455 2.04920055 -0.87117455 2.04920055 0 0 Z " fill="#DCF1FC" transform="translate(114,182)"/>
<path d="M0 0 C0.99 0 1.98 0 3 0 C3.29296875 5.95703125 3.29296875 5.95703125 3 8 C2.01 8.99 1.02 9.98 0 11 C0 7.37 0 3.74 0 0 Z " fill="#1072E6" transform="translate(54,136)"/>
<path d="M0 0 C0 4.0333534 -1.60879918 5.83517538 -4 9 C-4.66 9 -5.32 9 -6 9 C-6.66 10.32 -7.32 11.64 -8 13 C-8.66 12.67 -9.32 12.34 -10 12 C-3.84965831 3.55353075 -3.84965831 3.55353075 0 0 Z " fill="#217BE1" transform="translate(28,69)"/>
<path d="M0 0 C0.99 0.33 1.98 0.66 3 1 C3 1.99 3 2.98 3 4 C3.556875 4.226875 4.11375 4.45375 4.6875 4.6875 C7.63246684 6.35896766 9.68156544 8.55276352 12 11 C11.67 11.66 11.34 12.32 11 13 C7 9 3 5 -1 1 C-0.67 0.67 -0.34 0.34 0 0 Z " fill="#DEF7FE" transform="translate(147,43)"/>
<path d="M0 0 C1 2 1 2 0.375 4.5625 C-1 7 -1 7 -3.625 7.8125 C-4.40875 7.874375 -5.1925 7.93625 -6 8 C-5.65120368 4.74456771 -4.97866739 3.98126893 -2.4375 1.75 C-1.633125 1.1725 -0.82875 0.595 0 0 Z " fill="#3589E5" transform="translate(69,29)"/>
<path d="M0 0 C0.66 0.33 1.32 0.66 2 1 C0.35 2.98 -1.3 4.96 -3 7 C-1.68 8.65 -0.36 10.3 1 12 C-0.875 11.6875 -0.875 11.6875 -3 11 C-5 8 -5 8 -4.625 5.3125 C-4.41875 4.549375 -4.2125 3.78625 -4 3 C-3.34 3 -2.68 3 -2 3 C-2 2.34 -2 1.68 -2 1 C-1.34 0.67 -0.68 0.34 0 0 Z " fill="#E2F6FE" transform="translate(87,176)"/>
<path d="M0 0 C2.475 0.495 2.475 0.495 5 1 C5 2.32 5 3.64 5 5 C3.35 5.33 1.7 5.66 0 6 C0 4.02 0 2.04 0 0 Z " fill="#1671D4" transform="translate(110,158)"/>
<path d="M0 0 C3.59905908 0.55550695 4.99909799 1.74887248 7.25 4.5625 C8.03117187 5.52349609 8.03117187 5.52349609 8.828125 6.50390625 C9.21484375 6.99761719 9.6015625 7.49132812 10 8 C9.40703125 7.69320313 8.8140625 7.38640625 8.203125 7.0703125 C5.54170348 5.7773524 2.81660808 4.89619348 0 4 C0 2.68 0 1.36 0 0 Z " fill="#2E85E4" transform="translate(106,8)"/>
<path d="M0 0 C2.0625 0.4375 2.0625 0.4375 4 1 C4 2.32 4 3.64 4 5 C2.68 5.33 1.36 5.66 0 6 C-0.38218767 4.34385343 -0.71395102 2.67542976 -1 1 C-0.67 0.67 -0.34 0.34 0 0 Z " fill="#0C76EB" transform="translate(75,121)"/>
<path d="M0 0 C1.17539996 0.92652701 2.34010577 1.86663387 3.5 2.8125 C4.1496875 3.33457031 4.799375 3.85664062 5.46875 4.39453125 C7 6 7 6 7 9 C3.46352496 7.32482761 2.2088437 6.50719183 0.6875 2.8125 C0.460625 1.884375 0.23375 0.95625 0 0 Z " fill="#458FE7" transform="translate(150,48)"/>
<path d="M0 0 C7.48291572 6.15034169 7.48291572 6.15034169 10 10 C7.525 9.01 7.525 9.01 5 8 C5 7.34 5 6.68 5 6 C4.34 6 3.68 6 3 6 C3 5.34 3 4.68 3 4 C2.01 4 1.02 4 0 4 C0 2.68 0 1.36 0 0 Z " fill="#468DE3" transform="translate(125,24)"/>
<path d="M0 0 C0.66 0 1.32 0 2 0 C2 0.66 2 1.32 2 2 C2.66 2 3.32 2 4 2 C4.103125 2.639375 4.20625 3.27875 4.3125 3.9375 C4.539375 4.618125 4.76625 5.29875 5 6 C5.99 6.33 6.98 6.66 8 7 C4 7 4 7 2.515625 5.6875 C1.34375 4.125 0.171875 2.5625 -1 1 C-0.67 0.67 -0.34 0.34 0 0 Z " fill="#3177CB" transform="translate(133,165)"/>
<path d="M0 0 C2.31 1.98 4.62 3.96 7 6 C6.67 6.99 6.34 7.98 6 9 C3.5625 7.875 3.5625 7.875 1 6 C0.1875 2.8125 0.1875 2.8125 0 0 Z " fill="#327AD1" transform="translate(84,147)"/>
<path d="M0 0 C0 0.99 0 1.98 0 3 C-0.99 3.495 -0.99 3.495 -2 4 C-1.34 2.68 -0.68 1.36 0 0 Z M-5 3 C-2 5 -2 5 -1 8 C-2.32 8 -3.64 8 -5 8 C-5 7.34 -5 6.68 -5 6 C-5.99 5.67 -6.98 5.34 -8 5 C-7.01 4.34 -6.02 3.68 -5 3 Z " fill="#0E74E6" transform="translate(116,126)"/>
<path d="M0 0 C1.65 0 3.3 0 5 0 C4.67 1.65 4.34 3.3 4 5 C2.68 4.67 1.36 4.34 0 4 C0 2.68 0 1.36 0 0 Z " fill="#4794E2" transform="translate(89,124)"/>
<path d="M0 0 C0 0.66 0 1.32 0 2 C-0.86625 1.9175 -1.7325 1.835 -2.625 1.75 C-6.75988007 2.05628741 -8.74642697 3.52108722 -12 6 C-11.67 4.35 -11.34 2.7 -11 1 C-7.32589215 -0.17571451 -3.83070817 -0.07366746 0 0 Z " fill="#E1F9FF" transform="translate(103,1)"/>
<path d="M0 0 C2.31 1.98 4.62 3.96 7 6 C6.67 6.99 6.34 7.98 6 9 C5.34 8.01 4.68 7.02 4 6 C1.94996045 4.80767387 1.94996045 4.80767387 0 4 C0 2.68 0 1.36 0 0 Z " fill="#2772C6" transform="translate(107,176)"/>
<path d="M0 0 C1.32 0.33 2.64 0.66 4 1 C-0.75 6.875 -0.75 6.875 -3 8 C-2.67 6.02 -2.34 4.04 -2 2 C-1.34 2 -0.68 2 0 2 C0 1.34 0 0.68 0 0 Z " fill="#DCF2FD" transform="translate(134,160)"/>
<path d="M0 0 C1.98 0.495 1.98 0.495 4 1 C3.67 2.32 3.34 3.64 3 5 C1.68 4.67 0.36 4.34 -1 4 C-0.67 2.68 -0.34 1.36 0 0 Z " fill="#C7E9FD" transform="translate(141,143)"/>
<path d="M0 0 C1.65 0 3.3 0 5 0 C5 0.66 5 1.32 5 2 C5.66 2 6.32 2 7 2 C7.33 3.65 7.66 5.3 8 7 C7.34 7 6.68 7 6 7 C4.62517293 5.36739286 3.29352333 3.69774938 2 2 C1.34 1.34 0.68 0.68 0 0 Z " fill="#3683DF" transform="translate(106,132)"/>
<path d="M0 0 C1.98 0.495 1.98 0.495 4 1 C3.67 2.32 3.34 3.64 3 5 C1.68 4.67 0.36 4.34 -1 4 C-0.67 2.68 -0.34 1.36 0 0 Z " fill="#C1EBFE" transform="translate(121,125)"/>
<path d="M0 0 C0.99 0.99 1.98 1.98 3 3 C2.67 3.66 2.34 4.32 2 5 C1.01 5 0.02 5 -1 5 C-1.99 5.66 -2.98 6.32 -4 7 C-4 4 -4 4 -2 1.8125 C-1.34 1.214375 -0.68 0.61625 0 0 Z " fill="#2B7CD8" transform="translate(75,146)"/>
<path d="M0 0 C2.9375 0.8125 2.9375 0.8125 6 2 C6.33 2.99 6.66 3.98 7 5 C9.00016466 6.20882096 9.00016466 6.20882096 11 7 C8.875 7.4375 8.875 7.4375 6 7 C3.723853 4.87310854 1.8541278 2.4976567 0 0 Z " fill="#1F70CF" transform="translate(88,143)"/>
<path d="M0 0 C1.98 1.65 3.96 3.3 6 5 C5.01 5.495 5.01 5.495 4 6 C3.34 5.67 2.68 5.34 2 5 C1.67 5.99 1.34 6.98 1 8 C0.17361624 5.10765685 0 3.11257569 0 0 Z " fill="#217BE0" transform="translate(177,75)"/>
<path d="M0 0 C2 0.1875 2 0.1875 4 1 C4.66 1.99 5.32 2.98 6 4 C4.35 4.33 2.7 4.66 1 5 C0.67 4.34 0.34 3.68 0 3 C-0.66 2.67 -1.32 2.34 -2 2 C-1.34 1.34 -0.68 0.68 0 0 Z " fill="#3C80D6" transform="translate(78,143)"/>
<path d="M0 0 C1.98 0.495 1.98 0.495 4 1 C3.67 2.32 3.34 3.64 3 5 C1.68 4.34 0.36 3.68 -1 3 C-0.67 2.01 -0.34 1.02 0 0 Z " fill="#CDEFFE" transform="translate(59,139)"/>
<path d="M0 0 C2.125 0.375 2.125 0.375 4 1 C2.68 1.33 1.36 1.66 0 2 C-0.33 3.65 -0.66 5.3 -1 7 C-1.66 6.67 -2.32 6.34 -3 6 C-2.42655063 3.13275314 -2.1385485 2.1385485 0 0 Z " fill="#C9ECFC" transform="translate(70,125)"/>
<path d="M0 0 C0.99 0.33 1.98 0.66 3 1 C3 1.66 3 2.32 3 3 C2.34 3 1.68 3 1 3 C0.67 3.66 0.34 4.32 0 5 C-2.0625 6.125 -2.0625 6.125 -4 7 C-2.79618552 4.50638429 -1.54571278 2.31856917 0 0 Z " fill="#176BD8" transform="translate(104,174)"/>
<path d="M0 0 C0.99 0.33 1.98 0.66 3 1 C3 2.32 3 3.64 3 5 C1.68 5 0.36 5 -1 5 C-0.67 3.35 -0.34 1.7 0 0 Z " fill="#116DD5" transform="translate(66,170)"/>
<path d="M0 0 C1.98 1.65 3.96 3.3 6 5 C3 7 3 7 1 7 C0.67 4.69 0.34 2.38 0 0 Z " fill="#277BDF" transform="translate(171,69)"/>
<path d="M0 0 C1.98 0 3.96 0 6 0 C4 3 4 3 1.875 3.6875 C0.946875 3.8421875 0.946875 3.8421875 0 4 C0 2.68 0 1.36 0 0 Z " fill="#1E86F8" transform="translate(105,12)"/>
<path d="M0 0 C0.33 1.32 0.66 2.64 1 4 C-0.98 4.99 -0.98 4.99 -3 6 C-3.33 4.68 -3.66 3.36 -4 2 C-2.68 1.34 -1.36 0.68 0 0 Z " fill="#186DCB" transform="translate(107,186)"/>
<path d="M0 0 C1.98 0.495 1.98 0.495 4 1 C3.34 2.32 2.68 3.64 2 5 C1.01 4.34 0.02 3.68 -1 3 C-0.67 2.01 -0.34 1.02 0 0 Z " fill="#3D7BC0" transform="translate(121,173)"/>
<path d="M0 0 C3.36720387 1.39332574 4.9859524 2.9789286 7 6 C4.625 5.8125 4.625 5.8125 2 5 C0.6875 2.4375 0.6875 2.4375 0 0 Z " fill="#2A70CC" transform="translate(98,168)"/>
<path d="M0 0 C1.32 0.33 2.64 0.66 4 1 C3.195625 1.61875 2.39125 2.2375 1.5625 2.875 C-1.03874519 4.74164041 -1.03874519 4.74164041 -2 7 C-2.66 6.67 -3.32 6.34 -4 6 C-2.68 4.02 -1.36 2.04 0 0 Z " fill="#E6FCFE" transform="translate(108,155)"/>
<path d="M0 0 C2.475 0.495 2.475 0.495 5 1 C5 1.99 5 2.98 5 4 C3.35 3.67 1.7 3.34 0 3 C0 2.01 0 1.02 0 0 Z " fill="#F6FDFE" transform="translate(85,145)"/>
</svg>
